<svg xmlns="http://www.w3.org/2000/svg" xmlns:xlink="http://www.w3.org/1999/xlink" width="500" zoomAndPan="magnify" viewBox="0 0 375 374.999991" height="500" preserveAspectRatio="xMidYMid meet" version="1.0"><defs><clipPath id="id1"><path d="M 0.738281 102.1875 L 374.261719 102.1875 L 374.261719 273.1875 L 0.738281 273.1875 Z M 0.738281 102.1875 " clip-rule="nonzero"/></clipPath></defs><g clip-path="url(#id1)"><path fill="rgb(96.859741%, 14.509583%, 52.159119%)" d="M 28.925781 214.714844 C 28.835938 212.007812 28.90625 209.324219 29.097656 206.652344 C 29.285156 203.984375 29.597656 201.328125 30.011719 198.695312 C 30.847656 193.421875 32.089844 188.214844 33.75 183.140625 C 37.046875 172.988281 41.984375 163.347656 48.332031 154.746094 C 48.722656 154.199219 49.128906 153.667969 49.539062 153.140625 L 50.765625 151.558594 C 51.621094 150.535156 52.441406 149.476562 53.335938 148.484375 L 54.65625 146.972656 L 56.015625 145.503906 C 56.914062 144.511719 57.875 143.585938 58.808594 142.628906 C 62.601562 138.867188 66.695312 135.417969 70.984375 132.253906 C 79.574219 125.933594 89 120.839844 98.804688 116.820312 C 103.703125 114.804688 108.703125 113.054688 113.765625 111.53125 C 118.820312 109.992188 123.949219 108.71875 129.105469 107.621094 C 131.679688 107.046875 134.273438 106.59375 136.863281 106.101562 C 139.457031 105.6875 142.054688 105.226562 144.660156 104.890625 C 149.871094 104.132812 155.101562 103.605469 160.332031 103.167969 C 162.953125 102.976562 165.570312 102.765625 168.191406 102.648438 C 169.5 102.589844 170.8125 102.5 172.121094 102.457031 L 176.050781 102.328125 L 178.019531 102.265625 L 179.984375 102.238281 L 183.914062 102.191406 C 186.527344 102.183594 189.136719 102.191406 191.75 102.214844 C 202.195312 102.335938 212.644531 102.726562 223.082031 103.507812 C 228.296875 103.890625 233.511719 104.394531 238.71875 104.964844 C 243.917969 105.566406 249.121094 106.25 254.300781 107.058594 C 259.480469 107.882812 264.648438 108.804688 269.796875 109.867188 C 274.941406 110.933594 280.0625 112.15625 285.148438 113.515625 C 295.320312 116.242188 305.363281 119.582031 315.101562 123.785156 C 319.96875 125.886719 324.753906 128.203125 329.425781 130.773438 C 334.097656 133.335938 338.628906 136.1875 342.996094 139.308594 C 347.34375 142.457031 351.515625 145.898438 355.375 149.71875 C 359.222656 153.546875 362.789062 157.726562 365.796875 162.371094 C 368.800781 167.003906 371.300781 172.074219 372.8125 177.582031 C 373.5625 180.335938 374.058594 183.191406 374.21875 186.113281 C 374.230469 186.847656 374.28125 187.574219 374.253906 188.316406 L 374.226562 189.417969 L 374.136719 190.472656 C 374.007812 191.878906 373.953125 193.296875 373.675781 194.683594 C 372.820312 200.269531 371.007812 205.671875 368.484375 210.644531 C 365.960938 215.628906 362.742188 220.183594 359.128906 224.320312 C 355.476562 228.417969 351.414062 232.066406 347.15625 235.402344 L 343.902344 237.824219 C 343.636719 238.03125 343.359375 238.222656 343.078125 238.40625 L 342.242188 238.964844 L 338.878906 241.207031 C 338.316406 241.570312 337.730469 241.898438 337.160156 242.25 L 333.703125 244.3125 C 324.371094 249.574219 314.539062 253.714844 304.515625 257.097656 C 294.484375 260.480469 284.257812 263.101562 273.953125 265.210938 L 270.089844 265.996094 C 268.800781 266.265625 267.503906 266.460938 266.210938 266.695312 L 262.328125 267.371094 L 260.390625 267.707031 C 259.742188 267.820312 259.09375 267.90625 258.445312 268.003906 L 250.65625 269.144531 L 242.855469 270.09375 C 240.25 270.4375 237.640625 270.640625 235.035156 270.90625 C 232.429688 271.152344 229.824219 271.429688 227.214844 271.59375 L 219.386719 272.167969 L 211.550781 272.574219 L 207.636719 272.777344 L 195.882812 273.117188 L 188.046875 273.1875 C 185.4375 273.210938 182.824219 273.242188 180.214844 273.210938 C 169.773438 273.164062 159.324219 272.851562 148.886719 272.25 C 143.667969 271.960938 138.449219 271.5625 133.234375 271.101562 C 128.023438 270.640625 122.8125 270.085938 117.613281 269.421875 C 107.214844 268.105469 96.84375 266.386719 86.574219 264.082031 C 76.304688 261.777344 66.117188 258.914062 56.1875 255.140625 C 51.230469 253.253906 46.332031 251.160156 41.5625 248.734375 C 39.167969 247.542969 36.828125 246.234375 34.503906 244.882812 C 32.195312 243.511719 29.925781 242.046875 27.707031 240.5 C 25.503906 238.929688 23.351562 237.273438 21.273438 235.507812 C 19.203125 233.726562 17.21875 231.835938 15.339844 229.824219 C 11.578125 225.8125 8.296875 221.242188 5.804688 216.21875 C 3.308594 211.199219 1.664062 205.703125 1.046875 200.105469 C 0.730469 197.304688 0.664062 194.496094 0.820312 191.695312 C 0.988281 188.84375 1.460938 186.023438 2.175781 183.292969 C 3.621094 177.824219 6.042969 172.738281 9.015625 168.105469 C 11.996094 163.472656 15.53125 159.277344 19.40625 155.480469 C 27.1875 147.917969 36.28125 141.886719 46.085938 137.457031 C 50.992188 135.242188 56.097656 133.457031 61.335938 132.152344 C 66.574219 130.851562 71.964844 130.039062 77.414062 129.890625 C 82.855469 129.742188 88.363281 130.25 93.710938 131.605469 C 99.054688 132.949219 104.226562 135.167969 108.855469 138.242188 C 110.257812 139.171875 110.640625 141.0625 109.710938 142.464844 C 108.792969 143.855469 106.925781 144.242188 105.53125 143.34375 L 105.527344 143.339844 C 101.46875 140.710938 96.941406 138.832031 92.210938 137.699219 C 87.476562 136.558594 82.550781 136.15625 77.625 136.347656 C 72.695312 136.523438 67.765625 137.304688 62.945312 138.546875 C 58.125 139.792969 53.402344 141.488281 48.863281 143.585938 C 39.785156 147.773438 31.363281 153.484375 24.300781 160.472656 C 20.785156 163.972656 17.621094 167.804688 15.015625 171.941406 C 12.410156 176.074219 10.367188 180.515625 9.191406 185.121094 C 8.597656 187.421875 8.222656 189.761719 8.097656 192.101562 C 7.980469 194.492188 8.050781 196.898438 8.332031 199.265625 C 8.886719 204.007812 10.292969 208.613281 12.449219 212.890625 C 14.601562 217.167969 17.460938 221.125 20.824219 224.671875 C 22.503906 226.445312 24.292969 228.132812 26.171875 229.730469 C 28.0625 231.320312 30.035156 232.820312 32.066406 234.25 C 34.121094 235.660156 36.222656 237.007812 38.378906 238.277344 C 40.550781 239.527344 42.746094 240.746094 45.007812 241.863281 C 49.503906 244.125 54.171875 246.101562 58.917969 247.890625 C 68.417969 251.457031 78.28125 254.195312 88.269531 256.394531 C 98.265625 258.601562 108.410156 260.226562 118.601562 261.503906 C 123.699219 262.144531 128.8125 262.679688 133.941406 263.125 C 139.066406 263.566406 144.199219 263.949219 149.34375 264.226562 C 159.625 264.796875 169.9375 265.089844 180.25 265.117188 C 182.832031 265.140625 185.410156 265.109375 187.988281 265.078125 L 195.71875 264.996094 L 203.449219 264.757812 L 207.308594 264.636719 L 211.167969 264.441406 L 218.878906 264.042969 L 226.578125 263.480469 C 229.148438 263.320312 231.703125 263.042969 234.261719 262.804688 C 236.820312 262.546875 239.382812 262.34375 241.933594 262.007812 L 249.582031 261.078125 L 257.199219 259.964844 C 257.832031 259.867188 258.472656 259.785156 259.101562 259.679688 L 260.996094 259.347656 L 264.785156 258.6875 C 266.042969 258.457031 267.316406 258.269531 268.570312 258.007812 L 272.332031 257.242188 C 282.363281 255.195312 292.28125 252.648438 301.929688 249.402344 C 311.566406 246.140625 320.953125 242.199219 329.734375 237.277344 L 332.96875 235.355469 C 333.503906 235.03125 334.054688 234.71875 334.582031 234.382812 L 336.144531 233.34375 L 337.707031 232.308594 L 338.488281 231.789062 C 338.753906 231.621094 339.011719 231.441406 339.253906 231.25 L 342.253906 229.027344 C 346.175781 225.964844 349.875 222.65625 353.148438 219 C 356.378906 215.316406 359.199219 211.316406 361.382812 207.027344 C 363.570312 202.742188 365.105469 198.167969 365.835938 193.472656 C 366.085938 192.308594 366.117188 191.117188 366.234375 189.9375 L 366.316406 189.050781 L 366.335938 188.203125 C 366.363281 187.644531 366.316406 187.074219 366.316406 186.503906 C 366.195312 184.230469 365.804688 181.933594 365.199219 179.667969 C 363.964844 175.132812 361.84375 170.75 359.207031 166.667969 C 356.570312 162.574219 353.371094 158.789062 349.875 155.277344 C 346.359375 151.769531 342.511719 148.5625 338.460938 145.601562 C 334.390625 142.667969 330.128906 139.960938 325.710938 137.511719 C 321.289062 135.058594 316.730469 132.828125 312.074219 130.796875 C 302.757812 126.726562 293.0625 123.453125 283.199219 120.765625 C 263.449219 115.40625 243.039062 112.3125 222.53125 110.660156 C 212.265625 109.828125 201.96875 109.382812 191.660156 109.199219 C 189.082031 109.164062 186.5 109.140625 183.925781 109.128906 L 180.074219 109.15625 L 178.148438 109.167969 L 172.371094 109.308594 C 171.089844 109.34375 169.808594 109.417969 168.527344 109.46875 C 165.960938 109.5625 163.40625 109.746094 160.84375 109.914062 C 155.734375 110.304688 150.628906 110.777344 145.558594 111.476562 C 143.015625 111.78125 140.496094 112.210938 137.96875 112.597656 C 135.453125 113.050781 132.929688 113.46875 130.433594 114.007812 C 120.421875 116.027344 110.59375 118.882812 101.144531 122.625 C 91.707031 126.382812 82.675781 131.148438 74.46875 137.0625 C 70.367188 140.019531 66.460938 143.242188 62.839844 146.761719 C 61.949219 147.65625 61.03125 148.523438 60.175781 149.453125 L 58.875 150.824219 L 57.617188 152.238281 C 56.761719 153.167969 55.980469 154.160156 55.160156 155.117188 L 53.984375 156.601562 C 53.589844 157.097656 53.203125 157.59375 52.832031 158.101562 C 46.75 166.164062 42 175.222656 38.757812 184.8125 C 37.121094 189.601562 35.875 194.53125 35.019531 199.519531 C 34.589844 202.015625 34.257812 204.523438 34.050781 207.042969 C 33.835938 209.558594 33.734375 212.078125 33.785156 214.570312 L 33.785156 214.582031 C 33.8125 215.925781 32.746094 217.039062 31.40625 217.066406 C 30.074219 217.097656 28.972656 216.042969 28.925781 214.714844 " fill-opacity="1" fill-rule="nonzero"/></g></svg>